#!OML:ASF F:\VICON\USERDATA\INSTALL\rory3\rory3.ASF
:FULLY-SPECIFIED
:DEGREES
57
root -1.169933503641853 17.646407795890468 2.68787276517251 5.258966609055921 0.31881461954587087 2.077811406836896
lfemur -4.611652456248013 1.5161734259653965 -26.868058052536522
ltibia 45.00909468511632
lfoot -11.758465405783681 -5.305996037557621
ltoes -20.459211551051922
rfemur -43.65791731625147 -3.5975469999874954 20.198523341326243
rtibia 95.74041884933763
rfoot 9.370514335377125 -0.45492398392467415
rtoes 11.04197775583026
lowerback 1.0 0.15152836000105152 -4.061736507587611
upperback -0.3576680541516647 -0.055299277231391164 0.36142296659156103
thorax -8.128628656994 -0.21991785932384644 2.1510317140388286
lowerneck -21.55791954020229 -2.7135187134862093 -1.6038711765512297
upperneck 14.280485716945067 -3.0180175220417387 2.1376390462448125
head 7.994942548142964 -1.5071799522646387 0.5280619294295638
lclavicle 4.0542993636828173e-16 1.2624833433593023e-14
lhumerus -35.960813815922414 -10.167251188974259 90.58199769746788
lradius 124.99395907152649
lwrist 36.05716287148826
lhand -29.874969227910594 -8.478394266713908
lfingers nan
lthumb -3.1479078981579605 21.66156149025114
rclavicle 4.1570377744866304e-15 1.470678520722838e-14
rhumerus -64.66147707664356 8.718727679984452 -95.69018815286682
rradius 95.59434626200895
rwrist -21.976191051540503
rhand -18.977415551236682 1.0
rfingers nan
rthumb 7.414890271416194 10.292643545257306
58
root -1.143021312297402 17.741630554178975 2.9056901001963196 5.089899739940181 0.13720012384336688 1.863774236413515
lfemur -2.1473210668753815 1.3841640483360451 -26.544867906029197
ltibia 42.98839094541052
lfoot -7.705092138997738 -7.53092954114893
ltoes -21.646938550408798
rfemur -44.00743256401771 -3.184161298493311 20.420269607970965
rtibia 91.4357719052299
rfoot 8.044093033022333 -0.3661186843769002
rtoes 8.761079730658881
lowerback 1.0 0.006119042662586893 -3.793027769775833
upperback -0.48884658824913957 -0.22522312160698066 0.49076427012588414
thorax -8.258606922611111 -0.3116929599108682 2.152436347363278
lowerneck -20.820934997200848 -2.5504864929155566 -1.5934516151035119
upperneck 14.745754085282925 -2.807652814942112 2.130388752851481
head 8.028119745053326 -1.4478893729911282 0.5333026061227033
lclavicle 2.15302758600649e-15 -9.297629959187547e-16
lhumerus -35.912638475287906 -10.340364863325693 90.00302523438015
lradius 126.79207712629159
lwrist 36.50683991070124
lhand -30.03576287636201 -8.671394672016469
lfingers nan
lthumb -3.3115034428856007 21.476704967082604
rclavicle 5.823642048937348e-15 1.0937916284898268e-15
rhumerus -65.76976629551108 8.625226731816213 -95.64409277041771
rradius 96.18316319330471
rwrist -21.724149873011932
rhand -18.814879154894694 1.0
rfingers nan
rthumb 7.561502678699257 10.597274648316775
59
root -1.1170591395937917 17.825820580082116 3.5567047545484485 4.9788645124192366 -0.15878327820849103 1.6177748940652537
lfemur -0.04833911742043284 1.318337656942937 -26.23457381832163
ltibia 40.73137733766943
lfoot -3.0423913321836933 -10.371755650533558
ltoes -21.527264230831328
rfemur -44.27609993807144 -2.6571724110302593 20.72170081737771
rtibia 86.77546721144705
rfoot 7.12290839658125 -0.4358378122974145
rtoes 6.132016494651541
lowerback 1.0 -0.11216067514952477 -3.568121226579991
upperback -0.7037742394591735 -0.32896282945478195 0.6776753041977495
thorax -8.513386768291562 -0.36069598388500623 2.1939014616331565
lowerneck -19.471059701561344 -2.3742031829720625 -1.6445582961482335
upperneck 14.692988575333727 -2.549023674142609 2.1841940580484445
head 7.833264524979895 -1.3735801855809002 0.5632311400912094
lclavicle 1.7466304142520546e-14 1.4528380017735073e-14
lhumerus -36.09858646360968 -10.490383623542073 89.51112222813887
lradius 128.41185291962597
lwrist 36.36663265499013
lhand -29.79341568424161 -9.04149009134551
lfingers nan
lthumb -3.076650532633887 21.125501794721774
rclavicle 2.1563699910100226e-14 1.660462762410448e-14
rhumerus -67.17325088066235 8.529560920558053 -95.527653609391
rradius 97.00032308441534
rwrist -21.35849806609245
rhand -18.893616296069563 1.0
rfingers nan
rthumb 7.483712743877169 10.986227949459265
60
root -1.1062793430306521 17.883369558913873 4.271425118745734 4.777480632793877 -0.7555319559599052 1.4924625655738855
lfemur 1.9821324604210346 1.5622146336738794 -25.9717956359683
ltibia 38.4115241676196
lfoot 2.7015411954848716 -13.330545988651988
ltoes -19.88849445102225
rfemur -44.594210114048096 -2.0838382441301992 20.91603121862604
rtibia 82.03940806416428
rfoot 6.697120004116697 -0.4907184210059228
rtoes 4.841526857103038
lowerback 1.0 -0.1245404235085501 -3.5473580804145737
upperback -0.769682215568926 -0.33899062660280177 0.8551908976405822
thorax -8.569495809673416 -0.3614219379684397 2.3595976887125136
lowerneck -18.221376160019954 -2.1848042122874847 -1.6351429538932034
upperneck 14.476935775484801 -2.2967539338446445 2.139278196616818
head 7.595627850652128 -1.2944812132411694 0.5626506501897874
lclavicle -1.3981076233100403e-14 -1.5413365289610286e-14
lhumerus -36.14552047246472 -10.661944426683803 89.08364132591974
lradius 129.52254142160567
lwrist 35.957007917748875
lhand -28.877387103081386 -9.773091110949954
lfingers nan
lthumb -2.1952790590980995 20.385130193678435
rclavicle -9.617899473537582e-15 -1.3242321909363896e-14
rhumerus -68.35685164039091 8.281397588703175 -95.210073596224
rradius 97.69070655403715
rwrist -20.86614618119983
rhand -18.9317710500359 1.0
rfingers nan
rthumb 7.42951827414994 11.09270465390809
